<svg width="50" height="50" viewBox="0 0 94 98" fill="none" xmlns="http://www.w3.org/2000/svg">
<path d="M54.3069 1.98749C52.1035 0.687382 49.5764 0 47 0C44.4236 0 41.8965 0.687382 39.6931 1.98749L6.79307 21.405C4.71983 22.6283 3.00549 24.3514 1.81556 26.408C0.625639 28.4646 0.000327015 30.7852 0 33.1458V64.4383C0.000327015 66.7989 0.625639 69.1195 1.81556 71.1761C3.00549 73.2327 4.71983 74.9558 6.79307 76.1791L39.6931 95.5966C41.8965 96.8967 44.4236 97.5841 47 97.5841C49.5764 97.5841 52.1035 96.8967 54.3069 95.5966L87.2069 76.1791C89.2802 74.9558 90.9945 73.2327 92.1844 71.1761C93.3744 69.1195 93.9997 66.7989 94 64.4383V33.1458C93.9997 30.7852 93.3744 28.4646 92.1844 26.408C90.9945 24.3514 89.2802 22.6283 87.2069 21.405L54.3069 1.98749Z" fill="#9DCAFB"/>
<path d="M86.0919 46.9437L83.8242 42.3115C83.5895 41.5098 82.1569 36.9048 79.4397 34.1046V31.6405C79.4397 31.2157 79.2159 30.8207 78.847 30.5942C78.478 30.3676 78.0156 30.3412 77.6221 30.5241C76.3642 31.1087 75.2316 32.0401 74.2891 33.0501C70.9008 33.1355 68.1226 34.002 67.1857 34.33L58.2819 33.0915C57.1644 32.4554 52.6797 30.2516 44.2666 30.4037C36.5062 30.5411 31.2326 35.816 30.0115 37.1621C27.959 37.9202 23.7021 41.2354 20.3282 44.2562C17.1126 47.1352 11.2269 52.848 7.93753 58.764C7.72721 59.1426 7.73395 59.6007 7.95545 59.9733C8.17727 60.3458 8.58168 60.5794 9.02408 60.5899C9.03787 60.5902 9.06223 60.5906 9.097 60.5906C9.98793 60.5906 17.6767 60.3208 27.1574 51.5116C26.9907 52.3674 26.8631 53.2593 26.8004 54.1658C25.2621 54.282 24.0468 55.538 24.0468 57.0655V64.6314C24.0468 64.9596 24.1806 65.2742 24.4187 65.5061L25.7739 66.8258C26.0123 67.0579 26.3354 67.1883 26.6724 67.1883H29.3827C30.0844 67.1883 30.6532 66.6344 30.6532 65.9511C30.6532 65.2679 30.0846 64.7139 29.3827 64.7139H27.1984L26.5875 64.1189V60.6723C26.5875 58.9772 27.8438 58.416 30.7104 57.5394C32.3527 57.0371 34.0422 56.5185 35.2545 55.417C36.0863 56.18 36.8395 56.7788 37.3709 57.177L36.3084 60.2809C36.1402 60.7727 36.3046 61.3144 36.72 61.6382L43.4959 66.9168C43.7212 67.0924 44.0011 67.188 44.2897 67.188H47C47.7018 67.188 48.2706 66.6341 48.2706 65.9508C48.2706 65.2676 47.7019 64.7136 47 64.7136H44.7353L41.4656 62.1664C43.5559 59.8888 44.949 57.5288 45.8396 55.3093C48.9908 55.2826 51.1767 54.6161 52.2632 54.1856L52.5354 54.3846L53.8704 64.7846C53.9501 65.4037 54.4904 65.8683 55.1312 65.8683H57.8415C58.5432 65.8683 59.112 65.3145 59.112 64.6311C59.112 63.9479 58.5434 63.3939 57.8415 63.3939H56.5423C56.8527 62.1302 57.6272 60.2107 58.3416 58.625L62.0913 61.3634C62.1131 61.8454 61.9997 62.7911 61.0086 63.7562C60.5124 64.2394 60.5124 65.0228 61.0086 65.5057C61.2568 65.7472 61.582 65.8682 61.907 65.8682C62.2321 65.8682 62.5573 65.7475 62.8055 65.5057C64.6915 63.6691 64.7903 61.5733 64.5271 60.4913C64.4573 59.1135 63.629 56.7923 62.8752 54.9346C64.0664 54.1641 68.7153 51.0716 70.9504 48.3448C73.2825 47.7259 75.4827 47.1729 76.0967 47.0743C76.6823 47.2222 78.7251 47.9689 80.4078 48.6242C80.5579 48.6828 80.718 48.7128 80.8796 48.7128H84.9452C85.3811 48.7128 85.7869 48.495 86.0196 48.1358C86.2525 47.7772 86.2797 47.327 86.0919 46.9437ZM14.7817 56.737C13.5013 57.251 12.3917 57.5735 11.5005 57.7757C12.7439 55.9134 14.2016 54.1028 15.6733 52.4456L18.127 55.1161C16.8761 55.8227 15.7488 56.3487 14.7817 56.737ZM20.3035 53.7742L17.3804 50.5928C17.9608 49.9848 18.5305 49.4079 19.0775 48.8685L22.2813 52.3553C21.6021 52.8755 20.9414 53.3477 20.3035 53.7742ZM24.231 50.7664L20.8919 47.1321C21.2295 46.8185 21.5491 46.5263 21.8438 46.2608C22.1281 46.0046 22.4086 45.7552 22.6852 45.5124L26.0166 49.1382C25.4118 49.7189 24.8162 50.2604 24.231 50.7664ZM29.949 55.1789C29.7356 55.2443 29.5178 55.3111 29.298 55.3802C29.3001 53.1335 29.8346 50.861 30.4164 49.0519C31.1814 50.7806 32.319 52.3359 33.4882 53.6376C32.677 54.3445 31.2929 54.768 29.949 55.1789ZM55.6233 58.4924L55.3609 56.4485L56.2536 57.1004C56.0222 57.5932 55.8125 58.0571 55.6233 58.4924ZM81.1238 46.239C76.872 44.5895 76.3767 44.5895 76.1365 44.5895C75.6374 44.5895 73.5645 45.0773 69.9671 46.0407C69.9619 44.7609 70.1407 42.8888 71.078 41.589C71.4813 41.0297 71.3427 40.2582 70.7684 39.8655C70.1941 39.4729 69.4017 39.608 68.9986 40.1672C66.8698 43.1194 67.5104 47.628 67.5388 47.8184C67.5576 47.945 67.597 48.0664 67.6531 48.1794C65.7241 49.9873 63.087 51.8034 61.8753 52.6067C61.8081 52.4584 61.7517 52.3355 61.7105 52.2464C61.4221 51.6234 60.6698 51.3459 60.0301 51.6268C59.3903 51.9075 59.1054 52.6401 59.3937 53.263C59.9338 54.4301 60.644 56.1057 61.1857 57.6092L58.6117 55.7294C58.6097 55.7279 58.6077 55.7264 58.6054 55.7249L53.8582 52.2579L55.0089 47.7763C55.179 47.1136 54.7652 46.4419 54.0844 46.276C53.4037 46.1104 52.714 46.5133 52.5435 47.1762L51.3354 51.8823C50.6027 52.1753 49.0117 52.6904 46.6603 52.8112C47.4604 49.6903 47.3021 47.0854 46.8504 45.7655C46.6282 45.1172 45.9083 44.7668 45.2434 44.983C44.5777 45.199 44.2179 45.8996 44.4398 46.5479C44.8781 47.8279 45.3442 54.3088 39.4787 60.6189L38.9996 60.2456L40.0748 57.105C40.2545 56.5799 40.0543 56.0025 39.5844 55.691C39.5653 55.6783 37.6514 54.4013 35.7404 52.3723C34.0373 50.5649 32.0081 47.7908 32.0081 44.8371C32.0081 44.2633 31.603 43.7649 31.0296 43.6332C30.4562 43.5015 29.8649 43.7707 29.6014 44.284C29.5576 44.3695 29.1411 45.1896 28.6399 46.4736C28.5653 46.5261 28.4953 46.5863 28.4319 46.6561C28.2154 46.894 28 47.1249 27.7851 47.3527L24.5982 43.8844C27.8782 41.1783 30.3134 39.6226 30.9326 39.4618C31.245 39.4147 31.5284 39.2557 31.7269 39.0155C31.7765 38.9554 36.7788 33.0117 44.3125 32.8781C53.0201 32.7238 57.0927 35.2817 57.1269 35.3036C57.2869 35.4097 57.4698 35.4786 57.6616 35.5053L67.148 36.825C67.3701 36.856 67.5967 36.8287 67.8046 36.7468C67.8286 36.7374 69.692 36.0137 72.3099 35.6813C72.0451 36.1269 71.8343 36.539 71.6863 36.8887C71.4193 37.5204 71.7286 38.2434 72.3775 38.5036C72.5359 38.5671 72.6995 38.5971 72.8608 38.5971C73.3603 38.5971 73.8341 38.3085 74.036 37.8307C74.4812 36.7774 75.578 35.1946 76.8985 34.0073V36.9199C76.8985 37.603 77.4671 38.1571 78.169 38.1571C78.531 38.1571 78.8568 38.0089 79.0881 37.7724C79.5935 38.5928 80.019 39.4535 80.3615 40.2375C79.82 40.4883 79.059 40.8833 78.1109 41.4846C77.523 41.8573 77.3568 42.6239 77.7396 43.1964C77.9832 43.5607 78.3902 43.7586 78.8055 43.7586C79.0432 43.7586 79.2836 43.6936 79.4976 43.558C80.2244 43.0971 80.8154 42.7805 81.2488 42.57C81.3485 42.8775 81.4006 43.0613 81.4031 43.0704C81.423 43.1426 81.4498 43.2128 81.483 43.2804L82.9317 46.2394H81.1238V46.239Z" fill="black" stroke="black" stroke-width="0.000735294"/>
</svg>
